<!--?xml version="1.0" encoding="utf-8"?-->
<!-- Generator: Adobe Illustrator 15.1.0, SVG Export Plug-In . SVG Version: 6.00 Build 0)  -->

<svg version="1.1" id="_x32_" xmlns="http://www.w3.org/2000/svg" xmlns:xlink="http://www.w3.org/1999/xlink" x="0px" y="0px" width="512px" height="512px" viewBox="0 0 512 512" style="width: 256px; height: 256px; opacity: 1;" xml:space="preserve">
<style type="text/css">

	.st0{fill:#4B4B4B;}

</style>
<g>
	<path class="st0" d="M61.188,116.688c0,16.891-13.703,30.594-30.594,30.594C13.688,147.281,0,133.578,0,116.688
		s13.688-30.594,30.594-30.594C47.484,86.094,61.188,99.797,61.188,116.688z" style="fill: rgb(180, 170, 58);"></path>
	<path class="st0" d="M512,116.688c0,16.891-13.688,30.594-30.594,30.594c-16.891,0-30.594-13.703-30.594-30.594
		s13.703-30.594,30.594-30.594C498.313,86.094,512,99.797,512,116.688z" style="fill: rgb(180, 170, 58);"></path>
	<path class="st0" d="M286.594,65.438c0,16.891-13.703,30.578-30.594,30.578s-30.594-13.688-30.594-30.578
		c0-16.906,13.703-30.594,30.594-30.594S286.594,48.531,286.594,65.438z" style="fill: rgb(180, 170, 58);"></path>
	<polygon class="st0" points="435.359,381.156 462.094,174.656 353.109,251.672 256,123.391 158.891,251.672 49.906,174.656 
		76.641,381.156 	" style="fill: rgb(180, 170, 58);"></polygon>
	<polygon class="st0" points="80.781,413.156 89.063,477.156 256,477.156 422.938,477.156 431.219,413.156 	" style="fill: rgb(180, 170, 58);"></polygon>
</g>
</svg>
